<svg width="14" height="14" viewBox="0 0 14 14" fill="none" xmlns="http://www.w3.org/2000/svg">
<path fill-rule="evenodd" clip-rule="evenodd" d="M2.91667 1.75C2.60725 1.75 2.3105 1.87292 2.09171 2.09171C1.87292 2.3105 1.75 2.60725 1.75 2.91667V11.0833C1.75 11.3928 1.87292 11.6895 2.09171 11.9083C2.3105 12.1271 2.60725 12.25 2.91667 12.25H11.0833C11.3928 12.25 11.6895 12.1271 11.9083 11.9083C12.1271 11.6895 12.25 11.3928 12.25 11.0833V2.91667C12.25 2.60725 12.1271 2.3105 11.9083 2.09171C11.6895 1.87292 11.3928 1.75 11.0833 1.75H2.91667ZM2.91667 2.91667H11.0833V11.0833H2.91667V2.91667ZM9.8875 5.71375C9.94321 5.65994 9.98765 5.59557 10.0182 5.5244C10.0488 5.45323 10.0649 5.37669 10.0656 5.29923C10.0662 5.22178 10.0515 5.14497 10.0221 5.07328C9.99282 5.00159 9.9495 4.93646 9.89473 4.88169C9.83996 4.82692 9.77483 4.7836 9.70314 4.75427C9.63145 4.72494 9.55464 4.71018 9.47718 4.71085C9.39973 4.71153 9.32318 4.72762 9.25201 4.75819C9.18084 4.78876 9.11648 4.8332 9.06267 4.88892L6.17517 7.77642L4.93792 6.53917C4.88376 6.48497 4.81945 6.44197 4.74868 6.41262C4.6779 6.38328 4.60203 6.36816 4.52541 6.36813C4.37067 6.36808 4.22225 6.4295 4.11279 6.53888C4.00333 6.64825 3.94181 6.79664 3.94176 6.95138C3.9417 7.10612 4.00312 7.25454 4.1125 7.364L5.72133 8.97283C5.78092 9.03245 5.85167 9.07974 5.92954 9.11201C6.00741 9.14427 6.09088 9.16088 6.17517 9.16088C6.25946 9.16088 6.34292 9.14427 6.42079 9.11201C6.49866 9.07974 6.56941 9.03245 6.629 8.97283L9.8875 5.71375Z" fill="white"/>
</svg>
