<svg width="16" height="17" viewBox="0 0 16 17" fill="none" xmlns="http://www.w3.org/2000/svg">
<mask id="mask0_17_244" style="mask-type:luminance" maskUnits="userSpaceOnUse" x="0" y="0" width="16" height="17">
<path d="M15.8464 6.64879H8.17042V9.7873H12.581C12.5101 10.2315 12.3509 10.6684 12.1178 11.0669C11.8507 11.5233 11.5204 11.8709 11.182 12.1355C10.1681 12.9283 8.986 13.0904 8.16506 13.0904C6.09127 13.0904 4.31936 11.7228 3.63341 9.86434C3.60573 9.7969 3.58735 9.72723 3.56496 9.65837C3.41338 9.18538 3.33056 8.68444 3.33056 8.16379C3.33056 7.62192 3.42025 7.10322 3.58377 6.61334C4.2288 4.68123 6.04066 3.23814 8.16655 3.23814C8.59415 3.23814 9.00593 3.29007 9.39642 3.39367C10.2888 3.63041 10.9201 4.09668 11.3069 4.4655L13.6408 2.13317C12.2211 0.804876 10.3704 2.00828e-09 8.16267 2.00828e-09C6.39777 -3.87614e-05 4.76833 0.561076 3.43307 1.50938C2.35021 2.27843 1.46211 3.30808 0.86275 4.50392C0.305261 5.6127 0 6.84143 0 8.16256C0 9.48375 0.305727 10.7253 0.863219 11.8238V11.8312C1.45207 12.9974 2.31316 14.0016 3.35974 14.7671C4.27403 15.4359 5.91344 16.3265 8.16267 16.3265C9.45614 16.3265 10.6025 16.0886 11.6135 15.6426C12.3428 15.3209 12.989 14.9013 13.5741 14.362C14.3471 13.6495 14.9525 12.7681 15.3657 11.7541C15.779 10.74 16 9.59333 16 8.35011C16 7.77113 15.943 7.18314 15.8464 6.64873V6.64879Z" fill="white"/>
</mask>
<g mask="url(#mask0_17_244)">
<g filter="url(#filter0_f_17_244)">
<path d="M-0.117798 8.21799C-0.109313 9.51832 0.253802 10.8599 0.803438 11.943V11.9505C1.20058 12.737 1.74335 13.3583 2.36156 13.9739L6.09539 12.5837C5.38897 12.2175 5.28118 11.9932 4.77479 11.5838C4.25731 11.0513 3.87163 10.44 3.63144 9.72329H3.62176L3.63144 9.71583C3.47342 9.24253 3.45783 8.74012 3.452 8.21799H-0.117798Z" fill="url(#paint0_radial_17_244)"/>
</g>
<g filter="url(#filter1_f_17_244)">
<path d="M8.17052 -0.0593872C7.80147 1.2636 7.94258 2.54959 8.17052 3.29784C8.59669 3.29816 9.00723 3.35 9.3965 3.45326C10.2889 3.69001 10.9201 4.15629 11.3069 4.52511L13.7006 2.13319C12.2826 0.806485 10.5761 -0.0572969 8.17052 -0.0593872Z" fill="url(#paint1_radial_17_244)"/>
</g>
<g filter="url(#filter2_f_17_244)">
<path d="M8.16244 -0.0698242C6.35223 -0.0698642 4.68097 0.505656 3.31143 1.47831C2.80291 1.83945 2.33626 2.25663 1.92073 2.72055C1.81188 3.76263 2.73562 5.04346 4.5649 5.03286C5.45246 3.97936 6.76513 3.29774 8.22615 3.29774C8.22748 3.29774 8.22878 3.29785 8.23011 3.29786L8.17044 -0.0695858C8.16775 -0.0695876 8.16514 -0.0698242 8.16244 -0.0698242Z" fill="url(#paint2_radial_17_244)"/>
</g>
<g filter="url(#filter3_f_17_244)">
<path d="M14.1372 8.59507L12.5215 9.72771C12.4506 10.1719 12.2912 10.6088 12.0581 11.0073C11.791 11.4637 11.4608 11.8113 11.1223 12.076C10.1105 12.8671 8.93155 13.03 8.11083 13.0307C7.26253 14.505 7.11381 15.2434 8.17049 16.4333C9.47803 16.4323 10.6372 16.1915 11.6597 15.7404C12.3988 15.4144 13.0536 14.9892 13.6465 14.4427C14.4299 13.7206 15.0435 12.8273 15.4623 11.7997C15.8811 10.7721 16.105 9.61002 16.105 8.35013L14.1372 8.59507Z" fill="url(#paint3_radial_17_244)"/>
</g>
<g filter="url(#filter4_f_17_244)">
<path d="M8.05115 6.52954V9.90654H15.8248C15.8932 9.44406 16.1193 8.84558 16.1193 8.35013C16.1193 7.77114 16.0624 7.06395 15.9657 6.52954H8.05115Z" fill="#3086FF"/>
</g>
<g filter="url(#filter5_f_17_244)">
<path d="M1.95783 2.60132C1.47811 3.13691 1.06829 3.73638 0.743343 4.38471C0.185862 5.49349 -0.119385 6.84145 -0.119385 8.16258C-0.119385 8.1812 -0.117875 8.19941 -0.117753 8.218C0.129138 8.70104 3.2926 8.60854 3.45205 8.218C3.45185 8.19978 3.44984 8.18201 3.44984 8.16374C3.44984 7.62188 3.53955 7.22249 3.70308 6.7326C3.90481 6.12833 4.22067 5.57188 4.62458 5.09246C4.71614 4.97318 4.96036 4.71675 5.03162 4.56294C5.05876 4.50436 4.98234 4.47147 4.97806 4.45085C4.97329 4.42779 4.87083 4.44633 4.84787 4.42915C4.77499 4.3746 4.63067 4.34612 4.54303 4.3208C4.35572 4.26668 4.04528 4.14733 3.87286 4.02361C3.32782 3.63253 2.47726 3.1654 1.95783 2.60132Z" fill="url(#paint4_radial_17_244)"/>
</g>
<g filter="url(#filter6_f_17_244)">
<path d="M3.88458 4.45314C5.14845 5.23436 5.51192 4.05882 6.35222 3.69096L4.89049 0.59787C4.35279 0.828478 3.84477 1.11499 3.3734 1.44975C2.66945 1.94969 2.04782 2.55976 1.5343 3.25403L3.88458 4.45314Z" fill="url(#paint5_radial_17_244)"/>
</g>
<g filter="url(#filter7_f_17_244)">
<path d="M4.399 12.3448C2.70242 12.9697 2.43681 12.9922 2.28064 14.0651C2.57907 14.3622 2.89972 14.6371 3.24045 14.8863C4.15475 15.5551 5.91345 16.4458 8.16268 16.4458C8.16532 16.4458 8.16785 16.4455 8.17049 16.4455V12.9711C8.16879 12.9711 8.16683 12.9712 8.16513 12.9712C7.32287 12.9712 6.64982 12.7455 5.95974 12.3529C5.78959 12.2561 5.48091 12.516 5.32399 12.3998C5.10756 12.2396 4.58672 12.5379 4.399 12.3448Z" fill="url(#paint6_radial_17_244)"/>
</g>
<g opacity="0.5" filter="url(#filter8_f_17_244)">
<path d="M7.17688 12.8616V16.3853C7.49159 16.4229 7.8191 16.4458 8.16268 16.4458C8.5071 16.4458 8.84031 16.4277 9.16409 16.3945V12.8854C8.80124 12.9487 8.4595 12.9712 8.16512 12.9712C7.82608 12.9712 7.49636 12.9309 7.17688 12.8616Z" fill="url(#paint7_linear_17_244)"/>
</g>
</g>
<defs>
<filter id="filter0_f_17_244" x="-0.587877" y="7.74791" width="7.15329" height="6.69605" filterUnits="userSpaceOnUse" color-interpolation-filters="sRGB">
<feFlood flood-opacity="0" result="BackgroundImageFix"/>
<feBlend mode="normal" in="SourceGraphic" in2="BackgroundImageFix" result="shape"/>
<feGaussianBlur stdDeviation="0.23504" result="effect1_foregroundBlur_17_244"/>
</filter>
<filter id="filter1_f_17_244" x="7.47352" y="-0.529467" width="6.69724" height="5.52466" filterUnits="userSpaceOnUse" color-interpolation-filters="sRGB">
<feFlood flood-opacity="0" result="BackgroundImageFix"/>
<feBlend mode="normal" in="SourceGraphic" in2="BackgroundImageFix" result="shape"/>
<feGaussianBlur stdDeviation="0.23504" result="effect1_foregroundBlur_17_244"/>
</filter>
<filter id="filter2_f_17_244" x="1.44203" y="-0.539904" width="7.25815" height="6.04291" filterUnits="userSpaceOnUse" color-interpolation-filters="sRGB">
<feFlood flood-opacity="0" result="BackgroundImageFix"/>
<feBlend mode="normal" in="SourceGraphic" in2="BackgroundImageFix" result="shape"/>
<feGaussianBlur stdDeviation="0.23504" result="effect1_foregroundBlur_17_244"/>
</filter>
<filter id="filter3_f_17_244" x="6.95582" y="7.88005" width="9.61924" height="9.02332" filterUnits="userSpaceOnUse" color-interpolation-filters="sRGB">
<feFlood flood-opacity="0" result="BackgroundImageFix"/>
<feBlend mode="normal" in="SourceGraphic" in2="BackgroundImageFix" result="shape"/>
<feGaussianBlur stdDeviation="0.23504" result="effect1_foregroundBlur_17_244"/>
</filter>
<filter id="filter4_f_17_244" x="7.58107" y="6.05946" width="9.0084" height="4.31717" filterUnits="userSpaceOnUse" color-interpolation-filters="sRGB">
<feFlood flood-opacity="0" result="BackgroundImageFix"/>
<feBlend mode="normal" in="SourceGraphic" in2="BackgroundImageFix" result="shape"/>
<feGaussianBlur stdDeviation="0.23504" result="effect1_foregroundBlur_17_244"/>
</filter>
<filter id="filter5_f_17_244" x="-0.589464" y="2.13124" width="6.09702" height="6.88535" filterUnits="userSpaceOnUse" color-interpolation-filters="sRGB">
<feFlood flood-opacity="0" result="BackgroundImageFix"/>
<feBlend mode="normal" in="SourceGraphic" in2="BackgroundImageFix" result="shape"/>
<feGaussianBlur stdDeviation="0.23504" result="effect1_foregroundBlur_17_244"/>
</filter>
<filter id="filter6_f_17_244" x="-1.77055" y="-2.70698" width="11.4276" height="10.7275" filterUnits="userSpaceOnUse" color-interpolation-filters="sRGB">
<feFlood flood-opacity="0" result="BackgroundImageFix"/>
<feBlend mode="normal" in="SourceGraphic" in2="BackgroundImageFix" result="shape"/>
<feGaussianBlur stdDeviation="1.65243" result="effect1_foregroundBlur_17_244"/>
</filter>
<filter id="filter7_f_17_244" x="1.81056" y="11.8608" width="6.83005" height="5.05509" filterUnits="userSpaceOnUse" color-interpolation-filters="sRGB">
<feFlood flood-opacity="0" result="BackgroundImageFix"/>
<feBlend mode="normal" in="SourceGraphic" in2="BackgroundImageFix" result="shape"/>
<feGaussianBlur stdDeviation="0.23504" result="effect1_foregroundBlur_17_244"/>
</filter>
<filter id="filter8_f_17_244" x="6.7068" y="12.3916" width="2.92734" height="4.5243" filterUnits="userSpaceOnUse" color-interpolation-filters="sRGB">
<feFlood flood-opacity="0" result="BackgroundImageFix"/>
<feBlend mode="normal" in="SourceGraphic" in2="BackgroundImageFix" result="shape"/>
<feGaussianBlur stdDeviation="0.23504" result="effect1_foregroundBlur_17_244"/>
</filter>
<radialGradient id="paint0_radial_17_244" cx="0" cy="0" r="1" gradientTransform="matrix(-0.332481 -8.13055 11.9541 -0.487907 6.02065 13.8514)" gradientUnits="userSpaceOnUse">
<stop offset="0.141612" stop-color="#1ABD4D"/>
<stop offset="0.247515" stop-color="#6EC30D"/>
<stop offset="0.311547" stop-color="#8AC502"/>
<stop offset="0.366013" stop-color="#A2C600"/>
<stop offset="0.445673" stop-color="#C8C903"/>
<stop offset="0.540305" stop-color="#EBCB03"/>
<stop offset="0.615636" stop-color="#F7CD07"/>
<stop offset="0.699345" stop-color="#FDCD04"/>
<stop offset="0.771242" stop-color="#FDCE05"/>
<stop offset="0.860566" stop-color="#FFCE0A"/>
</radialGradient>
<radialGradient id="paint1_radial_17_244" cx="0" cy="0" r="1" gradientTransform="matrix(5.64645 -1.38474e-05 -7.93631e-06 7.28521 13.4767 4.35204)" gradientUnits="userSpaceOnUse">
<stop offset="0.408458" stop-color="#FB4E5A"/>
<stop offset="1" stop-color="#FF4540"/>
</radialGradient>
<radialGradient id="paint2_radial_17_244" cx="0" cy="0" r="1" gradientTransform="matrix(-7.91108 4.3775 5.94584 10.7252 10.393 -1.12438)" gradientUnits="userSpaceOnUse">
<stop offset="0.231273" stop-color="#FF4541"/>
<stop offset="0.311547" stop-color="#FF4540"/>
<stop offset="0.457516" stop-color="#FF4640"/>
<stop offset="0.540305" stop-color="#FF473F"/>
<stop offset="0.699346" stop-color="#FF5138"/>
<stop offset="0.771242" stop-color="#FF5B33"/>
<stop offset="0.860566" stop-color="#FF6C29"/>
<stop offset="1" stop-color="#FF8C18"/>
</radialGradient>
<radialGradient id="paint3_radial_17_244" cx="0" cy="0" r="1" gradientTransform="matrix(-14.347 -18.7107 -6.9131 5.29083 8.28811 15.3766)" gradientUnits="userSpaceOnUse">
<stop offset="0.131546" stop-color="#0CBA65"/>
<stop offset="0.209784" stop-color="#0BB86D"/>
<stop offset="0.297297" stop-color="#09B479"/>
<stop offset="0.396257" stop-color="#08AD93"/>
<stop offset="0.477124" stop-color="#0AA6A9"/>
<stop offset="0.568425" stop-color="#0D9CC6"/>
<stop offset="0.667385" stop-color="#1893DD"/>
<stop offset="0.768727" stop-color="#258BF1"/>
<stop offset="0.858506" stop-color="#3086FF"/>
</radialGradient>
<radialGradient id="paint4_radial_17_244" cx="0" cy="0" r="1" gradientTransform="matrix(-1.0153 8.74297 12.1001 1.4025 7.46934 1.47216)" gradientUnits="userSpaceOnUse">
<stop offset="0.366013" stop-color="#FF4E3A"/>
<stop offset="0.457516" stop-color="#FF8A1B"/>
<stop offset="0.540305" stop-color="#FFA312"/>
<stop offset="0.615636" stop-color="#FFB60C"/>
<stop offset="0.771242" stop-color="#FFCD0A"/>
<stop offset="0.860566" stop-color="#FECF0A"/>
<stop offset="0.915033" stop-color="#FECF08"/>
<stop offset="1" stop-color="#FDCD01"/>
</radialGradient>
<radialGradient id="paint5_radial_17_244" cx="0" cy="0" r="1" gradientTransform="matrix(-2.93475 3.2427 -9.15481 -8.26979 6.04159 1.38145)" gradientUnits="userSpaceOnUse">
<stop offset="0.315904" stop-color="#FF4C3C"/>
<stop offset="0.603818" stop-color="#FF692C"/>
<stop offset="0.726837" stop-color="#FF7825"/>
<stop offset="0.884534" stop-color="#FF8D1B"/>
<stop offset="1" stop-color="#FF9F13"/>
</radialGradient>
<radialGradient id="paint6_radial_17_244" cx="0" cy="0" r="1" gradientTransform="matrix(-7.91108 -4.37749 5.94584 -10.7252 10.3931 17.4507)" gradientUnits="userSpaceOnUse">
<stop offset="0.231273" stop-color="#0FBC5F"/>
<stop offset="0.311547" stop-color="#0FBC5F"/>
<stop offset="0.366013" stop-color="#0FBC5E"/>
<stop offset="0.457516" stop-color="#0FBC5D"/>
<stop offset="0.540305" stop-color="#12BC58"/>
<stop offset="0.699346" stop-color="#28BF3C"/>
<stop offset="0.771242" stop-color="#38C02B"/>
<stop offset="0.860566" stop-color="#52C218"/>
<stop offset="0.915033" stop-color="#67C30F"/>
<stop offset="1" stop-color="#86C504"/>
</radialGradient>
<linearGradient id="paint7_linear_17_244" x1="7.17688" y1="14.6537" x2="9.16409" y2="14.6537" gradientUnits="userSpaceOnUse">
<stop stop-color="#0FBC5C"/>
<stop offset="1" stop-color="#0CBA65"/>
</linearGradient>
</defs>
</svg>
