<svg width="16" height="20" viewBox="0 0 16 20" fill="none" xmlns="http://www.w3.org/2000/svg">
<path d="M15.4988 6.82353C14.188 7.64706 13.3783 9.05882 13.3783 10.6275C13.3783 12.3922 14.4193 14 16 14.6667C15.6916 15.6863 15.2289 16.6275 14.6506 17.4902C13.8024 18.7059 12.9157 19.9608 11.6048 19.9608C10.294 19.9608 9.90844 19.1765 8.36627 19.1765C6.86265 19.1765 6.32289 20 5.08916 20C3.85542 20 3.00723 18.8627 2.04337 17.451C0.771085 15.4902 0.0385542 13.2157 0 10.8235C0 6.94118 2.46747 4.86274 4.93494 4.86274C6.24578 4.86274 7.3253 5.72549 8.13494 5.72549C8.90602 5.72549 10.1398 4.82353 11.6048 4.82353C13.147 4.78431 14.612 5.52941 15.4988 6.82353ZM10.9108 3.17647C11.5663 2.39216 11.9133 1.41176 11.9518 0.392157C11.9518 0.27451 11.9518 0.117647 11.9133 0C10.7952 0.117647 9.75422 0.666667 9.02169 1.52941C8.36627 2.27451 7.98072 3.21569 7.94217 4.23529C7.94217 4.35294 7.94217 4.47059 7.98072 4.58824C8.05783 4.58824 8.17349 4.62745 8.2506 4.62745C9.29157 4.54902 10.2554 4 10.9108 3.17647Z" fill="white"/>
</svg>
